<svg xmlns="http://www.w3.org/2000/svg" viewBox="0 0 331 331"><defs><style>.cls-1{fill:#272b33;}.cls-2{fill:#d5f7e7;}.cls-3{fill:#dbf5ec;}</style></defs><g id="Layer_2" data-name="Layer 2"><g id="Layer_1-2" data-name="Layer 1"><rect class="cls-1" width="331" height="331" rx="52.19"/><path class="cls-2" d="M215.39,188.67c26.86-20,37.93-47.09,44.27-77.48A11.78,11.78,0,0,0,248.57,97c-5.85-.25-11.5-.41-17.12-.28-30.67.61-58.44,7.65-82,25.71a210.61,210.61,0,0,0-18.7,16.18,4.92,4.92,0,0,0-1.89-1c-23.36-5.93-53.86,2.13-69.68,18a5.25,5.25,0,0,0,3.76,8.92c13.28.2,25.42,3.81,36.06,11.85-2.55,3.67-5,7.38-7.44,11.17a5.57,5.57,0,0,0,.36,5.35q15.08,17.57,30.77,34.76c1.07,1.13,4.15,1.81,5.78,1.35,3.13-.89,6.21-1.83,9.29-2.78,5.76,12.65,6.44,25.73,3.34,39.11a5.25,5.25,0,0,0,7.76,5.81c19.07-11.45,34.13-38.8,34.22-62.77A213.54,213.54,0,0,0,215.39,188.67Z"/><path class="cls-3" d="M111.22,215.13c.07-.24.28,13.27-7.48,16.43s-18.16,5.33-19.24,12.93c0,0-1.31-5.61,2.34-9.57,0,0-11.08,7.15-16.69,3.93,0,0,4.71,2.19,8.94-4.53s1.72-10.74,9.26-15.1c0,0-5.8-.6-7.65,3.17,0,0,1.23-13.31,22.7-15.1a12.4,12.4,0,0,0-6,7.74c-1.49,5.6-5.34,7.81-6.54,8.21,0,0,7,.2,9.74-4.79a4,4,0,0,1-1.42,4.14S108.55,224.09,111.22,215.13Z"/></g></g></svg>